<svg xmlns="http://www.w3.org/2000/svg" viewBox="0 0 512 512" width="32" height="32">
  <path fill="#CBA135" d="M400 192H128c-17.7 0-32 14.3-32 32v192c0 17.7 14.3 32 32 32h272c17.7 0 32-14.3 32-32V224c0-17.7-14.3-32-32-32zm0 224H128V224h272v192z"/>
  <path fill="#CBA135" d="M128 160h256c8.8 0 16-7.2 16-16V48c0-26.5-21.5-48-48-48h-192C133.5 0 112 21.5 112 48v96c0 8.8 7.2 16 16 16zM144 32h160v112H144V32z"/>
  <path fill="#CBA135" d="M448 192c-5.1 0-10.1.7-16 2v190c5.9 1.3 10.9 2 16 2 35.3 0 64-28.7 64-64v-66c0-35.3-28.7-64-64-64zm32 128c0 17.6-14.4 32-32 32-1.8 0-3.6-.1-5.4-.3V226.3c1.8-.2 3.6-.3 5.4-.3 17.6 0 32 14.4 32 32v66z"/>
  <path fill="#CBA135" d="M384 464H128c-8.8 0-16 7.2-16 16v16c0 8.8 7.2 16 16 16h256c8.8 0 16-7.2 16-16v-16c0-8.8-7.2-16-16-16z"/>
</svg>
